
<svg width="400" height="400" viewBox="0 0 400 400" fill="none" xmlns="http://www.w3.org/2000/svg">
  <rect x="100" y="100" width="200" height="200" rx="10" fill="#f5f3ff" stroke="#9b87f5" stroke-width="2"/>
  
  <!-- Chart Bars -->
  <rect x="130" y="220" width="30" height="60" rx="4" fill="#c4b5fd"/>
  <rect x="170" y="200" width="30" height="80" rx="4" fill="#9b87f5"/>
  <rect x="210" y="180" width="30" height="100" rx="4" fill="#7E69AB"/>
  <rect x="250" y="240" width="30" height="40" rx="4" fill="#c4b5fd"/>
  
  <!-- Chart Labels -->
  <rect x="130" y="290" width="30" height="5" rx="2" fill="#ddd6fe"/>
  <rect x="170" y="290" width="30" height="5" rx="2" fill="#ddd6fe"/>
  <rect x="210" y="290" width="30" height="5" rx="2" fill="#ddd6fe"/>
  <rect x="250" y="290" width="30" height="5" rx="2" fill="#ddd6fe"/>
  
  <!-- Dollar Sign -->
  <circle cx="300" cy="130" r="25" fill="#9b87f5" fill-opacity="0.2"/>
  <path d="M300 120V140M295 125H305M295 135H305" stroke="#9b87f5" stroke-width="2" stroke-linecap="round"/>
  
  <!-- Title -->
  <rect x="130" y="130" width="100" height="10" rx="5" fill="#ddd6fe"/>
  <rect x="130" y="150" width="80" height="8" rx="4" fill="#ddd6fe"/>
</svg>
