
<svg width="1440" height="600" viewBox="0 0 1440 600" fill="none" xmlns="http://www.w3.org/2000/svg">
  <g opacity="0.15">
    <circle cx="100" cy="100" r="8" fill="#9b87f5"/>
    <circle cx="200" cy="50" r="6" fill="#9b87f5"/>
    <circle cx="300" cy="150" r="10" fill="#9b87f5"/>
    <circle cx="450" cy="75" r="5" fill="#9b87f5"/>
    <circle cx="550" cy="170" r="8" fill="#9b87f5"/>
    <circle cx="700" cy="120" r="7" fill="#9b87f5"/>
    <circle cx="850" cy="180" r="9" fill="#9b87f5"/>
    <circle cx="1000" cy="60" r="6" fill="#9b87f5"/>
    <circle cx="1150" cy="150" r="10" fill="#9b87f5"/>
    <circle cx="1300" cy="90" r="8" fill="#9b87f5"/>
    <circle cx="1400" cy="180" r="5" fill="#9b87f5"/>
    
    <circle cx="50" cy="250" r="7" fill="#9b87f5"/>
    <circle cx="180" cy="300" r="9" fill="#9b87f5"/>
    <circle cx="320" cy="260" r="6" fill="#9b87f5"/>
    <circle cx="470" cy="320" r="10" fill="#9b87f5"/>
    <circle cx="600" cy="280" r="8" fill="#9b87f5"/>
    <circle cx="750" cy="340" r="5" fill="#9b87f5"/>
    <circle cx="900" cy="270" r="7" fill="#9b87f5"/>
    <circle cx="1050" cy="330" r="9" fill="#9b87f5"/>
    <circle cx="1200" cy="250" r="6" fill="#9b87f5"/>
    <circle cx="1350" cy="310" r="8" fill="#9b87f5"/>
    
    <circle cx="120" cy="400" r="9" fill="#9b87f5"/>
    <circle cx="250" cy="450" r="7" fill="#9b87f5"/>
    <circle cx="380" cy="390" r="5" fill="#9b87f5"/>
    <circle cx="530" cy="470" r="8" fill="#9b87f5"/>
    <circle cx="650" cy="410" r="10" fill="#9b87f5"/>
    <circle cx="780" cy="480" r="6" fill="#9b87f5"/>
    <circle cx="920" cy="420" r="8" fill="#9b87f5"/>
    <circle cx="1080" cy="490" r="7" fill="#9b87f5"/>
    <circle cx="1230" cy="430" r="9" fill="#9b87f5"/>
    <circle cx="1380" cy="480" r="5" fill="#9b87f5"/>
    
    <circle cx="80" cy="540" r="6" fill="#9b87f5"/>
    <circle cx="220" cy="580" r="8" fill="#9b87f5"/>
    <circle cx="350" cy="530" r="10" fill="#9b87f5"/>
    <circle cx="480" cy="590" r="7" fill="#9b87f5"/>
    <circle cx="620" cy="550" r="5" fill="#9b87f5"/>
    <circle cx="750" cy="590" r="9" fill="#9b87f5"/>
    <circle cx="880" cy="540" r="6" fill="#9b87f5"/>
    <circle cx="1020" cy="580" r="8" fill="#9b87f5"/>
    <circle cx="1150" cy="530" r="10" fill="#9b87f5"/>
    <circle cx="1280" cy="590" r="7" fill="#9b87f5"/>
    <circle cx="1400" cy="550" r="5" fill="#9b87f5"/>
  </g>
</svg>
