
<svg width="400" height="400" viewBox="0 0 400 400" fill="none" xmlns="http://www.w3.org/2000/svg">
  <!-- Envelope -->
  <rect x="100" y="150" width="200" height="120" rx="8" fill="#f5f3ff" stroke="#9b87f5" stroke-width="2"/>
  <path d="M100 170L200 230L300 170" stroke="#9b87f5" stroke-width="2"/>
  
  <!-- Card -->
  <rect x="150" y="120" width="100" height="150" rx="8" fill="white" stroke="#7E69AB" stroke-width="2"/>
  <rect x="170" y="140" width="60" height="8" rx="4" fill="#ddd6fe"/>
  <rect x="170" y="160" width="40" height="6" rx="3" fill="#ddd6fe"/>
  
  <!-- Decoration -->
  <circle cx="200" cy="190" r="20" fill="#c4b5fd" fill-opacity="0.3"/>
  <path d="M190 190L200 200L210 190L200 180L190 190Z" fill="#9b87f5"/>
  
  <rect x="175" y="220" width="50" height="5" rx="2.5" fill="#ddd6fe"/>
  <rect x="180" y="235" width="40" height="5" rx="2.5" fill="#ddd6fe"/>
  <rect x="185" y="250" width="30" height="5" rx="2.5" fill="#ddd6fe"/>
  
  <!-- Confetti -->
  <circle cx="130" cy="140" r="5" fill="#9b87f5" fill-opacity="0.5"/>
  <circle cx="270" cy="130" r="4" fill="#7E69AB" fill-opacity="0.5"/>
  <circle cx="290" cy="260" r="6" fill="#c4b5fd" fill-opacity="0.5"/>
  <circle cx="110" cy="270" r="3" fill="#ddd6fe" fill-opacity="0.5"/>
</svg>
