
<svg width="400" height="400" viewBox="0 0 400 400" fill="none" xmlns="http://www.w3.org/2000/svg">
  <circle cx="200" cy="200" r="150" fill="#f5f3ff"/>
  
  <!-- Vendor 1 -->
  <rect x="120" y="120" width="80" height="90" rx="8" fill="white" stroke="#9b87f5" stroke-width="2"/>
  <circle cx="160" cy="145" r="15" fill="#ddd6fe"/>
  <rect x="135" y="170" width="50" height="8" rx="4" fill="#ddd6fe"/>
  <rect x="145" y="185" width="30" height="8" rx="4" fill="#ddd6fe"/>
  
  <!-- Vendor 2 -->
  <rect x="230" y="150" width="80" height="90" rx="8" fill="white" stroke="#7E69AB" stroke-width="2"/>
  <circle cx="270" cy="175" r="15" fill="#c4b5fd"/>
  <rect x="245" y="200" width="50" height="8" rx="4" fill="#c4b5fd"/>
  <rect x="255" y="215" width="30" height="8" rx="4" fill="#c4b5fd"/>
  
  <!-- Vendor 3 -->
  <rect x="160" y="230" width="80" height="90" rx="8" fill="white" stroke="#c4b5fd" stroke-width="2"/>
  <circle cx="200" cy="255" r="15" fill="#ede9fe"/>
  <rect x="175" y="280" width="50" height="8" rx="4" fill="#ede9fe"/>
  <rect x="185" y="295" width="30" height="8" rx="4" fill="#ede9fe"/>
  
  <!-- Connection Lines -->
  <line x1="190" y1="175" x2="230" y2="190" stroke="#9b87f5" stroke-width="2" stroke-dasharray="4 4"/>
  <line x1="240" y1="230" x2="210" y2="230" stroke="#7E69AB" stroke-width="2" stroke-dasharray="4 4"/>
  <line x1="160" y1="210" x2="180" y2="230" stroke="#c4b5fd" stroke-width="2" stroke-dasharray="4 4"/>
</svg>
